<svg xmlns="http://www.w3.org/2000/svg" xmlns:xlink="http://www.w3.org/1999/xlink" width="280" height="79" viewBox="0 0 280 79">
    <defs>
        <path id="prefix__a" d="M18.834 0.144L0.06 0.144 0.06 48.481 37.609 48.481 37.609 0.144 18.834 0.144z"/>
        <path id="prefix__c" d="M0.158 12.94L121.148 12.94 121.148 0.372 0.158 0.372 0.158 12.94z"/>
    </defs>
    <g fill="none" fill-rule="evenodd">
        <mask id="prefix__b" fill="#fff">
            <use xlink:href="#prefix__a"/>
        </mask>
        <path fill="#242B2D" d="M8.077 32.002c0 1.767.301 3.274.905 4.523.603 1.25 1.443 2.273 2.52 3.07 1.076.798 2.315 1.379 3.716 1.745 1.399.366 2.918.549 4.556.549 1.766 0 3.273-.204 4.523-.614 1.249-.409 2.262-.937 3.037-1.583.775-.646 1.335-1.389 1.681-2.23.344-.839.516-1.689.516-2.552 0-1.766-.398-3.07-1.195-3.909-.798-.841-1.67-1.432-2.617-1.778-1.638-.602-3.544-1.173-5.719-1.712-2.176-.538-4.857-1.238-8.046-2.1-1.981-.517-3.63-1.196-4.943-2.036-1.315-.84-2.359-1.777-3.134-2.811-.775-1.034-1.325-2.132-1.647-3.295-.324-1.163-.486-2.348-.486-3.555 0-2.326.486-4.339 1.454-6.042.97-1.701 2.251-3.112 3.845-4.232 1.594-1.12 3.403-1.949 5.429-2.488C14.496.414 16.543.144 18.61.144c2.413 0 4.686.313 6.818.937 2.133.625 4.007 1.562 5.622 2.811 1.616 1.25 2.897 2.79 3.846 4.62.946 1.832 1.421 3.953 1.421 6.366h-8.078c-.215-2.973-1.227-5.073-3.037-6.301-1.809-1.228-4.115-1.842-6.915-1.842-.948 0-1.917.097-2.907.291-.992.194-1.896.517-2.715.969-.818.453-1.497 1.067-2.035 1.842-.539.775-.808 1.745-.808 2.908 0 1.638.506 2.919 1.519 3.845 1.012.927 2.336 1.626 3.974 2.1.171.043.85.226 2.036.549 1.184.324 2.508.679 3.973 1.067 1.465.387 2.898.765 4.298 1.131 1.399.366 2.402.636 3.005.807 1.508.475 2.821 1.121 3.941 1.939 1.121.819 2.057 1.756 2.812 2.811.753 1.056 1.313 2.187 1.68 3.393.366 1.206.549 2.413.549 3.618 0 2.585-.528 4.793-1.583 6.624-1.056 1.832-2.446 3.328-4.169 4.491-1.722 1.163-3.682 2.014-5.879 2.553-2.198.538-4.438.808-6.721.808-2.628 0-5.106-.324-7.432-.97-2.326-.646-4.351-1.636-6.074-2.972-1.724-1.335-3.102-3.048-4.136-5.138C.581 37.312.042 34.845 0 32.002h8.077" mask="url(#prefix__b)"/>
        <path fill="#242B2D" d="M43.166 1.242L50.532 1.242 50.532 27.479 63.845 13.973 72.892 13.973 60.097 26.251 74.119 47.382 65.137 47.382 54.927 31.162 50.532 35.427 50.532 47.382 43.166 47.382 43.166 1.242M77.222 47.382h7.366V13.973h-7.366v33.409zm0-39.161h7.366V1.242h-7.366v6.979zM91.954 13.973h6.98v4.911l.129.129c1.12-1.851 2.585-3.305 4.394-4.362 1.81-1.055 3.813-1.583 6.01-1.583 3.661 0 6.548.948 8.659 2.843 2.11 1.897 3.166 4.74 3.166 8.53v22.941h-7.366V26.38c-.087-2.627-.647-4.534-1.681-5.719-1.033-1.184-2.649-1.777-4.847-1.777-1.25 0-2.369.226-3.36.679-.991.452-1.831 1.077-2.519 1.874-.69.797-1.228 1.734-1.617 2.811-.387 1.077-.581 2.219-.581 3.424v19.71h-7.367V13.973M134.732 32.002c0 1.767.301 3.274.906 4.523.602 1.25 1.442 2.273 2.519 3.07 1.076.798 2.316 1.379 3.716 1.745 1.4.366 2.918.549 4.556.549 1.766 0 3.273-.204 4.523-.614 1.249-.409 2.262-.937 3.037-1.583.776-.646 1.335-1.389 1.681-2.23.344-.839.517-1.689.517-2.552 0-1.766-.399-3.07-1.196-3.909-.798-.841-1.67-1.432-2.617-1.778-1.638-.602-3.544-1.173-5.719-1.712-2.175-.538-4.857-1.238-8.046-2.1-1.981-.517-3.629-1.196-4.943-2.036-1.314-.84-2.358-1.777-3.134-2.811-.775-1.034-1.325-2.132-1.647-3.295-.323-1.163-.486-2.348-.486-3.555 0-2.326.486-4.339 1.455-6.042.969-1.701 2.251-3.112 3.844-4.232 1.594-1.12 3.404-1.949 5.429-2.488 2.024-.538 4.071-.808 6.139-.808 2.412 0 4.685.313 6.817.937 2.133.625 4.007 1.562 5.622 2.811 1.616 1.25 2.898 2.79 3.846 4.62.946 1.832 1.421 3.953 1.421 6.366h-8.077c-.216-2.973-1.228-5.073-3.038-6.301-1.809-1.228-4.115-1.842-6.915-1.842-.948 0-1.917.097-2.907.291-.992.194-1.896.517-2.715.969-.818.453-1.497 1.067-2.035 1.842-.539.775-.807 1.745-.807 2.908 0 1.638.505 2.919 1.518 3.845 1.012.927 2.336 1.626 3.974 2.1.172.043.85.226 2.036.549 1.184.324 2.509.679 3.974 1.067 1.464.387 2.897.765 4.297 1.131s2.402.636 3.005.807c1.508.475 2.822 1.121 3.942 1.939 1.12.819 2.056 1.756 2.811 2.811.753 1.056 1.314 2.187 1.68 3.393.366 1.206.55 2.413.55 3.618 0 2.585-.529 4.793-1.583 6.624-1.057 1.832-2.447 3.328-4.169 4.491-1.723 1.163-3.683 2.014-5.88 2.553-2.197.538-4.438.808-6.721.808-2.628 0-5.105-.324-7.431-.97-2.327-.646-4.352-1.636-6.075-2.972-1.723-1.335-3.101-3.048-4.135-5.138-1.035-2.089-1.574-4.556-1.616-7.399h8.077M166.267 13.973h5.557V3.957h7.367v10.016h6.656v5.492h-6.656v17.836c0 .775.033 1.444.097 2.003.065.561.215 1.034.452 1.422.237.388.592.678 1.067.872.473.194 1.12.291 1.938.291.518 0 1.034-.01 1.551-.032.518-.021 1.034-.097 1.551-.227v5.687c-.819.086-1.616.172-2.391.259-.775.086-1.573.129-2.391.129-1.938 0-3.501-.184-4.685-.549-1.186-.366-2.111-.905-2.778-1.616-.669-.711-1.121-1.604-1.358-2.682-.237-1.076-.377-2.304-.42-3.683v-19.71h-5.557v-5.492M205.815 42.471c1.637 0 3.059-.344 4.265-1.034 1.206-.689 2.197-1.594 2.973-2.714.775-1.12 1.346-2.38 1.713-3.781.365-1.399.548-2.832.548-4.297 0-1.422-.183-2.843-.548-4.265-.367-1.421-.938-2.682-1.713-3.78-.776-1.099-1.767-1.993-2.973-2.682-1.206-.688-2.628-1.034-4.265-1.034-1.637 0-3.059.346-4.264 1.034-1.207.689-2.197 1.583-2.973 2.682-.775 1.098-1.347 2.359-1.713 3.78-.366 1.422-.549 2.843-.549 4.265 0 1.465.183 2.898.549 4.297.366 1.401.938 2.661 1.713 3.781.776 1.12 1.766 2.025 2.973 2.714 1.205.69 2.627 1.034 4.264 1.034zm0 5.816c-2.671 0-5.051-.443-7.14-1.325-2.09-.883-3.857-2.1-5.299-3.651-1.444-1.551-2.542-3.403-3.296-5.558-.754-2.153-1.131-4.523-1.131-7.108 0-2.541.377-4.889 1.131-7.044.754-2.153 1.852-4.006 3.296-5.557 1.442-1.551 3.209-2.768 5.299-3.651 2.089-.883 4.469-1.325 7.14-1.325 2.671 0 5.051.442 7.141 1.325 2.089.883 3.856 2.1 5.299 3.651 1.443 1.551 2.542 3.404 3.296 5.557.753 2.155 1.131 4.503 1.131 7.044 0 2.585-.378 4.955-1.131 7.108-.754 2.155-1.853 4.007-3.296 5.558-1.443 1.551-3.21 2.768-5.299 3.651-2.09.882-4.47 1.325-7.141 1.325z"/>
        <g fill="#242B2D">
            <path d="M.173.973h6.915v6.462h.129c.215-.905.635-1.787 1.26-2.65.624-.861 1.379-1.647 2.261-2.358.883-.711 1.864-1.281 2.941-1.713 1.076-.43 2.175-.646 3.296-.646.861 0 1.454.022 1.777.065.323.043.656.087 1.001.129V7.37c-.517-.086-1.045-.161-1.583-.226-.539-.064-1.066-.097-1.583-.097-1.25 0-2.423.248-3.522.743-1.098.496-2.058 1.228-2.876 2.197-.819.97-1.464 2.165-1.938 3.587-.475 1.422-.711 3.059-.711 4.911v15.897H.173V.973M44.051 14.737c-.087-1.163-.334-2.283-.743-3.36-.41-1.077-.969-2.014-1.68-2.811-.711-.797-1.573-1.443-2.585-1.939-1.013-.495-2.144-.743-3.393-.743-1.292 0-2.466.226-3.521.679-1.057.452-1.961 1.077-2.715 1.874-.754.797-1.356 1.734-1.808 2.811-.454 1.077-.702 2.24-.744 3.489h17.189zm-17.189 4.847c0 1.292.183 2.542.549 3.748.365 1.206.915 2.261 1.648 3.166.732.905 1.658 1.627 2.779 2.165 1.12.539 2.455.808 4.007.808 2.153 0 3.887-.463 5.201-1.39 1.314-.926 2.294-2.315 2.94-4.168h6.98c-.388 1.81-1.057 3.425-2.004 4.847-.947 1.422-2.09 2.617-3.425 3.586-1.336.97-2.833 1.703-4.491 2.198-1.658.494-3.393.743-5.201.743-2.629 0-4.955-.431-6.98-1.293-2.025-.861-3.738-2.068-5.137-3.618-1.401-1.552-2.455-3.403-3.166-5.558-.711-2.154-1.067-4.523-1.067-7.108 0-2.369.377-4.621 1.131-6.753.753-2.133 1.831-4.007 3.231-5.622 1.4-1.616 3.091-2.897 5.073-3.845C30.911.543 33.151.068 35.65.068c2.627 0 4.987.549 7.077 1.648 2.088 1.099 3.822 2.553 5.202 4.362 1.378 1.809 2.38 3.888 3.005 6.236.624 2.348.785 4.772.484 7.27H26.862z" transform="translate(228 13)"/>
        </g>
        <path fill="#00AC9C" d="M114.935 71.116c0-3.134 1.825-5.775 5.071-5.775 2.218 0 3.749 1.192 4.512 2.975-.237.524-.332 1.046-.394 1.444-.422-2.058-1.833-3.711-4.118-3.711-2.774 0-4.254 2.425-4.254 5.067 0 2.641 1.48 5.066 4.254 5.066 2.774 0 4.253-2.425 4.253-5.066v-.087l.004-.06c0-3.133 1.828-5.774 5.072-5.774 3.245 0 5.073 2.641 5.073 5.774 0 3.135-1.828 5.774-5.073 5.774-2.219 0-3.72-1.178-4.482-2.961.233-.524.301-1.058.363-1.459.424 2.06 1.834 3.713 4.119 3.713 2.772 0 4.258-2.426 4.258-5.067 0-2.64-1.486-5.065-4.258-5.065-2.77 0-4.254 2.425-4.254 5.065v.088l-.005.059c0 3.136-1.824 5.774-5.07 5.774-3.246 0-5.071-2.638-5.071-5.774zm-1.662 5.326h.816V61.115h-.816v15.327zm26.708-7.556l-.754.643.754-.643zm-1.252 1.431l.664-.585 5.013 6.71h-1.117l-4.56-6.125zm-2.638 1.964l.301-.274-.323.269v4.166h-.817V61.115h.817V71.27l6.812-5.863h1.183l-3.958 3.372-.125.107-3.589 3.121-.301.274z"/>
        <path fill="#484C4C" d="M166.39 66.117h1.761v-.71h-1.761v.71zm5.263-.71v.71h-2.407v7.706c0 1.781.838 1.952 2.386 1.911v.708c-1.679.107-3.287-.129-3.203-2.619v-7.706l-.01-.71.01-2.765h.817v2.765h2.407zm8.801 2.688v6.453l-.002.348.001 1.53h-.857v-2.104c-.515 1.306-2 2.445-4.108 2.445-2.083 0-3.694-.793-3.694-3.113 0-2.576 2.237-3.112 4.062-3.261 3.653-.258 3.802-.496 3.802-2.298 0-.494-.557-2.17-3.07-2.17-1.978 0-3.29 1.032-3.396 2.942h-.816c.106-2.425 1.613-3.65 4.212-3.65 1.935 0 3.866.601 3.866 2.878zm-.817 3.264v-1.117c-.643.728-2.404.643-3.994.857-1.934.214-3.029.903-3.029 2.555 0 1.598.967 2.406 2.896 2.406 4.093 0 4.127-4.12 4.127-4.701zm1.5 1.481h.816c.128 2.039 1.654 3.22 3.653 3.22 1.439 0 3.502-.432 3.502-2.341 0-1.868-1.889-2.147-3.781-2.534-1.912-.386-3.804-.88-3.804-3.134 0-2.188 2.128-2.834 3.997-2.834 2.343 0 4.085 1.01 4.085 3.522h-.816c-.022-1.995-1.421-2.814-3.269-2.814-1.503 0-3.179.56-3.179 2.126 0 1.762 1.891 2.04 3.673 2.427 2.192.407 3.912.921 3.912 3.241 0 2.381-2.383 3.048-4.32 3.048-2.516 0-4.406-1.353-4.469-3.927zm14.488 3.603h.814V65.407h-.814v11.036zm-38.6-8.352v6.453l-.002.348v1.529h-.855v-2.068l-.002-.037c-.519 1.309-1.999 2.446-4.107 2.446-2.083 0-3.697-.793-3.697-3.111 0-2.577 2.237-3.113 4.06-3.263 3.654-.258 3.807-.493 3.807-2.297 0-.493-.56-2.169-3.076-2.169-1.978 0-3.287 1.03-3.394 2.94h-.817c.107-2.424 1.613-3.649 4.211-3.649 1.935 0 3.872.603 3.872 2.878zm-.818 3.265v-1.12c-.645.732-2.407.644-3.998.86-1.936.214-3.029.9-3.027 2.555 0 1.594.966 2.404 2.898 2.404 4.094 0 4.127-4.121 4.127-4.699zm50.753-2.466h-.817c-.153-1.954-1.742-2.965-3.737-2.965-2.773 0-4.256 2.449-4.256 4.96 0 2.984 1.398 5.175 4.256 5.175 2.065 0 3.565-1.418 3.844-3.436h.818c-.368 2.641-2.588 4.143-4.974 4.143-3.589 0-4.759-2.814-4.759-5.882 0-3.069 1.805-5.668 5.071-5.668 2.385 0 4.319 1.16 4.554 3.673zm-61.096-5.562c0-1.516 1.054-2.169 2.35-2.193h.765v.711h-.765c-.864.019-1.533.355-1.533 1.544v2.017h2.298v.71h-2.298v10.325h-.817V66.117h-2.171v-.042l.783-.668h1.388v-2.079zm46.583 3.717v6.778c0 1.781.842 1.952 2.385 1.911v.708c-1.674.107-3.288-.129-3.204-2.619v-7.706h-2.036v-.71h2.036v-2.765h.819v4.403zm.259-.928h2.147v-.71h-2.147v.71zm-26.357 2.659l.003.052v7.617h-.816l-.002-7.617c-.105-1.903-1.405-2.932-3.367-2.941-1.963.009-3.265 1.038-3.371 2.941l-.001 7.617h-.816v-7.669c.128-2.385 1.622-3.59 4.188-3.596 2.564.006 4.057 1.211 4.182 3.596z"/>
        <path fill="#242B2D" d="M23.126 73.431c.294.395.614.675.962.837.348.161.737.242 1.169.242.851 0 1.505-.303 1.96-.908.456-.606.683-1.469.683-2.589 0-.594-.052-1.104-.157-1.53-.105-.425-.256-.774-.454-1.046-.198-.274-.44-.473-.728-.599s-.615-.189-.98-.189c-.522 0-.979.121-1.371.36-.393.24-.754.579-1.084 1.016v4.406zm-.081-5.503c.384-.474.827-.854 1.331-1.142.503-.288 1.079-.431 1.726-.431.527 0 1.004.1 1.43.3.426.202.788.498 1.088.891.3.393.53.88.692 1.461.162.582.243 1.25.243 2.006 0 .671-.09 1.296-.27 1.874-.179.579-.439 1.079-.778 1.502-.338.423-.752.755-1.24.998-.489.243-1.039.364-1.65.364-.558 0-1.036-.095-1.434-.283-.399-.189-.751-.451-1.057-.787v4.028h-1.609V66.517h.962c.227 0 .368.11.422.332l.144 1.079zM36.982 71.524c-.737.025-1.365.083-1.884.176-.518.093-.941.214-1.267.365-.327.149-.564.326-.711.53-.147.204-.22.431-.22.683 0 .24.039.447.117.621.078.173.184.316.319.427.135.111.293.192.477.242.182.051.379.077.588.077.282 0 .54-.029.774-.085.234-.057.454-.14.661-.247.207-.109.404-.238.593-.387.189-.151.373-.321.553-.513v-1.889zm-5.17-3.722c.503-.486 1.046-.848 1.628-1.088.581-.239 1.225-.359 1.933-.359.509 0 .962.084 1.358.252.395.167.728.401.998.701.269.299.473.662.611 1.088.138.425.207.893.207 1.402v5.827h-.71c-.157 0-.276-.025-.36-.076-.084-.051-.15-.151-.198-.302l-.18-.863c-.24.223-.473.419-.701.589-.228.171-.468.315-.72.431-.251.118-.52.207-.804.271-.285.062-.602.094-.949.094-.354 0-.687-.049-.998-.149-.312-.098-.583-.247-.814-.444-.231-.198-.413-.448-.548-.751-.135-.303-.203-.661-.203-1.075 0-.36.1-.705.297-1.038.198-.333.518-.628.962-.886.444-.258 1.022-.469 1.736-.634.713-.165 1.588-.26 2.625-.283v-.711c0-.707-.153-1.242-.458-1.605-.306-.362-.753-.544-1.34-.544-.396 0-.727.05-.994.149-.267.099-.498.21-.692.332-.195.123-.363.234-.504.333-.14.099-.28.148-.418.148-.108 0-.2-.028-.279-.085-.078-.057-.143-.127-.197-.211l-.288-.513zM42.953 68.342c.287-.623.641-1.11 1.061-1.461.419-.351.932-.526 1.537-.526.192 0 .376.021.553.062.177.042.334.108.472.198l-.116 1.197c-.037.149-.126.224-.27.224-.084 0-.207-.018-.369-.054-.162-.036-.345-.054-.548-.054-.288 0-.544.042-.769.126-.225.084-.426.209-.603.373-.177.165-.336.369-.477.611-.14.243-.268.521-.381.832v5.755h-1.61v-9.108h.917c.174 0 .294.033.36.098.065.067.111.18.135.342l.108 1.385M51.225 75.769c-.72 0-1.273-.201-1.66-.603-.386-.401-.58-.979-.58-1.735v-5.574h-1.096c-.096 0-.177-.029-.243-.086-.066-.057-.099-.146-.099-.265v-.639l1.493-.189.368-2.815c.018-.089.058-.163.121-.219.063-.057.146-.086.248-.086h.809v3.138h2.635v1.161h-2.635v5.466c0 .384.093.668.279.855.185.185.426.278.719.278.168 0 .313-.022.436-.067.123-.045.23-.095.319-.149.09-.053.167-.103.23-.148s.118-.068.166-.068c.084 0 .159.051.225.154l.467.763c-.275.258-.608.46-.998.608-.389.146-.791.22-1.204.22M64.217 74.501c.899 0 1.571-.301 2.015-.903.443-.603.665-1.444.665-2.523 0-1.085-.222-1.929-.665-2.536-.444-.604-1.116-.908-2.015-.908-.455 0-.853.078-1.191.234-.339.157-.621.381-.845.674-.225.294-.393.655-.504 1.084-.111.429-.166.913-.166 1.452 0 1.079.223 1.92.67 2.523.446.602 1.125.903 2.036.903zm0-8.129c.666 0 1.265.111 1.799.333.533.222.988.537 1.366.944.378.408.667.901.868 1.48.201.578.301 1.224.301 1.937 0 .719-.1 1.367-.301 1.943-.201.575-.49 1.066-.868 1.474-.378.408-.833.721-1.366.94-.534.219-1.133.328-1.799.328-.671 0-1.275-.109-1.812-.328-.536-.219-.993-.532-1.371-.94-.378-.408-.667-.899-.867-1.474-.202-.576-.302-1.224-.302-1.943 0-.713.1-1.359.302-1.937.2-.579.489-1.072.867-1.48.378-.407.835-.722 1.371-.944.537-.222 1.141-.333 1.812-.333zM71.42 75.625v-7.742l-1.008-.116c-.125-.031-.229-.077-.31-.14-.081-.063-.121-.154-.121-.274v-.657h1.439v-.881c0-.522.073-.985.22-1.389.147-.404.356-.746.629-1.026.273-.278.601-.49.985-.633.383-.144.815-.216 1.294-.216.408 0 .783.06 1.124.18l-.035.8c-.012.144-.092.222-.238.234-.147.012-.344.018-.59.018-.275 0-.526.035-.75.108-.225.072-.419.188-.58.35-.162.162-.287.375-.373.639-.087.264-.131.591-.131.98v.836h2.626v1.161h-2.572v7.768H71.42M85.096 75.769c-.72 0-1.273-.201-1.659-.603-.387-.401-.58-.979-.58-1.735v-5.574H81.76c-.096 0-.177-.029-.243-.086-.066-.057-.099-.146-.099-.265v-.639l1.493-.189.368-2.815c.018-.089.059-.163.121-.219.063-.057.146-.086.248-.086h.809v3.138h2.635v1.161h-2.635v5.466c0 .384.093.668.279.855.185.185.426.278.719.278.168 0 .314-.022.436-.067.123-.045.23-.095.32-.149.089-.053.166-.103.229-.148s.118-.068.166-.068c.084 0 .159.051.225.154l.467.763c-.275.258-.608.46-.998.608-.389.146-.791.22-1.204.22M90.805 67.731c.39-.415.822-.744 1.295-.99s1.019-.369 1.636-.369c.498 0 .937.083 1.318.248.38.165.698.399.953.701.255.303.448.667.58 1.093.132.425.198.896.198 1.411v5.8h-1.61v-5.8c0-.689-.157-1.224-.472-1.604-.315-.381-.793-.572-1.434-.572-.473 0-.916.115-1.327.342-.41.228-.789.536-1.137.926v6.708h-1.609V62.38h1.609v5.351"/>
        <g transform="translate(99 66)">
            <mask id="prefix__d" fill="#fff">
                <use xlink:href="#prefix__c"/>
            </mask>
            <path fill="#242B2D" d="M6.776 4.077c0-.372-.052-.712-.157-1.02-.105-.309-.258-.575-.458-.801-.201-.225-.446-.399-.733-.522-.288-.122-.615-.183-.981-.183-.767 0-1.374.223-1.82.67-.447.446-.724 1.065-.832 1.856h4.981zm1.295 4.272c-.197.239-.434.447-.71.624-.276.177-.571.322-.886.436-.314.115-.64.199-.975.256-.336.058-.669.086-.998.086-.63 0-1.21-.106-1.74-.319-.531-.213-.989-.525-1.376-.936-.387-.41-.688-.918-.904-1.523C.266 6.367.158 5.672.158 4.887c0-.636.098-1.23.293-1.78.195-.552.475-1.031.841-1.435.365-.404.812-.723 1.339-.953C3.159.488 3.752.372 4.412.372c.545 0 1.05.092 1.515.275.464.183.866.447 1.204.792.339.344.604.769.796 1.276.192.507.288 1.083.288 1.73 0 .252-.027.42-.081.504-.054.084-.156.126-.305.126H1.741c.018.575.097 1.076.239 1.502.14.426.336.78.588 1.066.252.284.552.497.899.637.348.142.738.212 1.169.212.402 0 .748-.047 1.039-.139.29-.093.541-.194.751-.301.209-.109.385-.209.526-.302.14-.093.262-.139.364-.139.132 0 .234.051.306.153l.449.585zM116.635 5.267c.324 0 .608-.045.854-.135.246-.09.452-.216.62-.378.168-.161.294-.355.378-.579.084-.226.126-.473.126-.742 0-.558-.17-1.001-.508-1.331-.339-.329-.829-.495-1.47-.495-.648 0-1.141.166-1.479.495-.339.33-.508.773-.508 1.331 0 .269.043.516.13.742.087.224.214.418.382.579.168.162.375.288.621.378.245.09.53.135.854.135zm2.886 4.945c0-.222-.063-.401-.188-.539-.126-.138-.296-.246-.509-.324-.213-.077-.46-.133-.741-.166-.282-.034-.581-.059-.895-.076-.315-.019-.634-.037-.958-.054-.324-.019-.635-.048-.935-.09-.335.155-.61.352-.823.589-.213.236-.319.513-.319.831 0 .204.053.394.158.571.104.177.265.33.481.459.215.129.486.231.814.306.326.074.711.112 1.155.112.431 0 .818-.039 1.159-.117.342-.078.631-.189.869-.333.236-.144.418-.315.544-.512.125-.198.188-.417.188-.657zm1.627-9.243v.594c0 .197-.125.323-.377.377l-1.034.135c.204.396.306.833.306 1.313 0 .443-.086.846-.256 1.209-.171.363-.407.673-.706.93-.3.258-.66.456-1.079.594-.42.138-.875.207-1.367.207-.426 0-.827-.051-1.205-.153-.192.12-.339.247-.441.383-.102.134-.153.27-.153.408 0 .216.089.38.266.49.176.111.409.191.696.238.288.048.617.079.985.09.369.013.746.032 1.133.059.387.027.765.073 1.133.139.369.067.697.174.985.324.287.15.52.357.697.621.176.263.265.605.265 1.024 0 .39-.098.768-.292 1.134-.195.365-.475.69-.841.976-.366.284-.814.511-1.344.682-.531.171-1.129.257-1.794.257s-1.247-.066-1.744-.198c-.498-.132-.912-.309-1.242-.53-.329-.222-.576-.479-.741-.769-.165-.291-.247-.596-.247-.913 0-.449.14-.83.422-1.142.282-.311.668-.56 1.16-.746-.27-.12-.484-.28-.643-.481-.159-.201-.238-.472-.238-.814 0-.132.024-.268.071-.409.049-.141.122-.282.221-.423.099-.14.22-.274.364-.4s.312-.236.504-.332c-.45-.252-.8-.586-1.052-1.003-.252-.417-.378-.9-.378-1.452 0-.444.086-.847.256-1.21.171-.363.409-.671.715-.926s.67-.451 1.093-.589c.422-.138.885-.207 1.389-.207.395 0 .764.044 1.106.131.342.087.653.214.935.382h2.472z" mask="url(#prefix__d)"/>
        </g>
        <path fill="#242B2D" d="M223.781 68.435c.288-.623.641-1.111 1.061-1.461.42-.351.932-.527 1.538-.527.191 0 .376.022.553.063.176.042.334.108.472.198l-.117 1.196c-.036.15-.126.225-.27.225-.084 0-.206-.019-.369-.054-.161-.036-.344-.054-.548-.054-.287 0-.544.042-.769.126-.225.084-.426.209-.602.373-.177.165-.336.369-.477.611-.141.243-.268.52-.382.832v5.755h-1.609v-9.109h.917c.174 0 .293.034.359.099.066.066.111.18.135.342l.108 1.385M232.728 74.594c.899 0 1.57-.301 2.014-.904.444-.602.666-1.443.666-2.522 0-1.085-.222-1.93-.666-2.536-.444-.605-1.115-.908-2.014-.908-.455 0-.853.078-1.191.234-.339.156-.621.381-.846.674-.225.294-.392.655-.503 1.084-.111.429-.166.913-.166 1.452 0 1.079.223 1.92.669 2.522.447.603 1.126.904 2.037.904zm0-8.129c.666 0 1.265.111 1.798.333.534.222.989.537 1.367.944.378.407.667.901.868 1.48.2.578.301 1.223.301 1.937 0 .719-.101 1.366-.301 1.943-.201.575-.49 1.066-.868 1.474-.378.407-.833.721-1.367.94-.533.218-1.132.328-1.798.328-.671 0-1.275-.11-1.812-.328-.537-.219-.994-.533-1.371-.94-.378-.408-.667-.899-.868-1.474-.201-.577-.301-1.224-.301-1.943 0-.714.1-1.359.301-1.937.201-.579.49-1.073.868-1.48.377-.407.834-.722 1.371-.944.537-.222 1.141-.333 1.812-.333zM247.024 66.609v9.109h-.953c-.228 0-.372-.111-.432-.333l-.125-.98c-.396.438-.84.79-1.331 1.057-.492.267-1.056.399-1.691.399-.497 0-.936-.082-1.317-.247-.381-.165-.7-.396-.958-.696-.257-.3-.451-.663-.58-1.089-.129-.425-.193-.895-.193-1.411v-5.809h1.6v5.809c0 .689.158 1.223.473 1.601.315.377.796.566 1.443.566.473 0 .916-.112 1.326-.337.411-.225.79-.535 1.137-.931v-6.708h1.601M251.619 73.524c.294.395.614.674.962.836.348.162.737.243 1.169.243.851 0 1.505-.303 1.96-.909.456-.605.684-1.468.684-2.588 0-.594-.053-1.104-.158-1.53-.105-.426-.256-.774-.454-1.047-.197-.273-.44-.472-.728-.598s-.615-.189-.98-.189c-.522 0-.979.12-1.371.36-.393.24-.754.579-1.084 1.016v4.406zm-.081-5.503c.384-.474.827-.854 1.331-1.142.504-.288 1.079-.432 1.726-.432.528 0 1.004.101 1.43.301.426.201.788.498 1.088.891.3.392.531.88.692 1.461.162.582.243 1.25.243 2.006 0 .67-.089 1.295-.27 1.874-.179.579-.439 1.079-.777 1.502-.339.422-.753.754-1.241.998-.489.243-1.039.364-1.65.364-.558 0-1.036-.095-1.434-.283-.399-.189-.751-.452-1.057-.787v4.028h-1.609V66.609h.962c.227 0 .368.111.422.332l.144 1.08z"/>
    </g>
</svg>
